<svg id="Layer_1" data-name="Layer 1" xmlns="http://www.w3.org/2000/svg" viewBox="0 0 24 24" stroke-width="1.5" width="24" height="24" color="#000000"><defs><style>.cls-637b88e7f95e86b59c57a1f7-1{fill:none;stroke:currentColor;stroke-miterlimit:10;}</style></defs><path class="cls-637b88e7f95e86b59c57a1f7-1" d="M15.8,6.28A1.92,1.92,0,0,1,13.89,8.2H12a1.91,1.91,0,0,0-1.91,1.91V12H5.28V4.37h8.61A1.92,1.92,0,0,1,15.8,6.28Z"></path><path class="cls-637b88e7f95e86b59c57a1f7-1" d="M19.63,15.85l1.91,3.82H12a1.92,1.92,0,0,1-1.91-1.91V10.11A1.92,1.92,0,0,0,12,12h9.56Z"></path><path class="cls-637b88e7f95e86b59c57a1f7-1" d="M15.8,6.28V12H12a1.92,1.92,0,0,1-1.91-1.91A1.91,1.91,0,0,1,12,8.2h1.91A1.92,1.92,0,0,0,15.8,6.28Z"></path><path class="cls-637b88e7f95e86b59c57a1f7-1" d="M1.46,23.5V3.41A1.91,1.91,0,0,1,3.37,1.5h0A1.91,1.91,0,0,1,5.28,3.41V23.5"></path></svg>